<svg xmlns="http://www.w3.org/2000/svg" width="70.68" height="70.678" viewBox="0 0 70.68 70.678">
  <g id="progroup" transform="translate(-1424.033 -129.95)">
    <g id="Group_4" data-name="Group 4" transform="translate(1424.033 129.95)">
      <path id="Path_5" data-name="Path 5" d="M2175.493,401.5l-3.934,1.278q-.118-.353-.247-.7l4.2-1.614A9.545,9.545,0,0,1,2175.493,401.5Z" transform="translate(-2107.266 -377.276)" fill="#ef4c23"/>
      <path id="Path_6" data-name="Path 6" d="M1917,161.325l-.8,3q-.361-.091-.725-.173l.6-2.837A8.067,8.067,0,0,0,1917,161.325Z" transform="translate(-1873.352 -158.622)" fill="#ef4c23"/>
      <path id="Path_7" data-name="Path 7" d="M2195.959,506.316l-4.315.226q-.023-.371-.056-.741l3.917-.411C2195.666,505.7,2195.822,506,2195.959,506.316Z" transform="translate(-2125.804 -473.212)" fill="#ef4c23"/>
      <path id="Path_8" data-name="Path 8" d="M2169.119,380.152l-4.406,1.692q-.136-.347-.283-.689l4.369-1.946c.034.07.068.14.1.212A3.916,3.916,0,0,1,2169.119,380.152Z" transform="translate(-2100.973 -357.846)" fill="#ef4c23"/>
      <path id="Path_9" data-name="Path 9" d="M2185.305,446.56l-2.834.6c-.055-.242-.111-.484-.172-.724l2.989-.8A7.918,7.918,0,0,0,2185.305,446.56Z" transform="translate(-2117.311 -418.582)" fill="#ef4c23"/>
      <path id="Path_10" data-name="Path 10" d="M2189.444,467.138l-2.954.468c-.04-.245-.085-.488-.133-.732l2.8-.595A6.373,6.373,0,0,0,2189.444,467.138Z" transform="translate(-2121.021 -437.454)" fill="#ef4c23"/>
      <path id="Path_11" data-name="Path 11" d="M1988.764,169.627l-1.965,3.857q-.334-.165-.672-.321l1.889-4.242a6.906,6.906,0,0,1,.748.707Z" transform="translate(-1937.952 -165.58)" fill="#ef4c23"/>
      <path id="Path_12" data-name="Path 12" d="M2180.865,423.39c-.035.334-.073.669-.1,1l-3.271.877q-.1-.359-.21-.714Z" transform="translate(-2112.722 -398.241)" fill="#ef4c23"/>
      <path id="Path_13" data-name="Path 13" d="M1953.751,158.258l-1.616,4.209q-.348-.13-.7-.248l1.28-3.943a9.374,9.374,0,0,1,1.037-.019Z" transform="translate(-1906.233 -155.826)" fill="#ef4c23"/>
      <path id="Path_14" data-name="Path 14" d="M2021.4,203.979l-1.616,2.488q-.315-.2-.634-.392l1.614-2.795C2020.972,203.526,2021.182,203.761,2021.4,203.979Z" transform="translate(-1968.146 -196.995)" fill="#ef4c23"/>
      <path id="Path_15" data-name="Path 15" d="M2130.78,317.585l-2.395,1.555q-.205-.308-.422-.613l2.361-1.715a4.969,4.969,0,0,0,.362.639C2130.716,317.5,2130.747,317.54,2130.78,317.585Z" transform="translate(-2067.632 -300.797)" fill="#ef4c23"/>
      <path id="Path_16" data-name="Path 16" d="M2037.253,218.442l-1.717,2.363q-.3-.216-.613-.424l1.555-2.394.113.082A5.127,5.127,0,0,0,2037.253,218.442Z" transform="translate(-1982.568 -210.442)" fill="#ef4c23"/>
      <path id="Path_17" data-name="Path 17" d="M2141.545,334.1l-2.8,1.619q-.19-.319-.391-.634l2.493-1.618C2141.063,333.689,2141.3,333.9,2141.545,334.1Z" transform="translate(-2077.131 -316.027)" fill="#ef4c23"/>
      <path id="Path_18" data-name="Path 18" d="M2161.178,362.711l-4.248,1.892q-.155-.338-.321-.672l3.864-1.969A6.736,6.736,0,0,1,2161.178,362.711Z" transform="translate(-2093.824 -342.076)" fill="#ef4c23"/>
      <path id="Path_19" data-name="Path 19" d="M2193.115,486.6l-3.563.375q-.042-.37-.094-.738l3.2-.507C2192.8,486.02,2192.957,486.309,2193.115,486.6Z" transform="translate(-2123.856 -455.238)" fill="#ef4c23"/>
      <path id="Path_20" data-name="Path 20" d="M2005.3,186.231l-1.782,3.086q-.325-.184-.655-.357l1.8-3.54C2004.885,185.686,2005.095,185.959,2005.3,186.231Z" transform="translate(-1953.258 -180.666)" fill="#ef4c23"/>
      <path id="Path_21" data-name="Path 21" d="M1898.466,156.668l-.595,2.8c-.243-.047-.487-.093-.732-.134l.467-2.949A6.349,6.349,0,0,0,1898.466,156.668Z" transform="translate(-1856.59 -154.115)" fill="#ef4c23"/>
      <path id="Path_22" data-name="Path 22" d="M1935.464,159.52l-1.168,3.595q-.355-.109-.714-.21l.879-3.28C1934.795,159.593,1935.132,159.555,1935.464,159.52Z" transform="translate(-1889.911 -156.986)" fill="#ef4c23"/>
      <path id="Path_23" data-name="Path 23" d="M1879.876,147.1l-.505,3.189q-.368-.053-.738-.094l.374-3.556C1879.3,146.8,1879.588,146.958,1879.876,147.1Z" transform="translate(-1839.671 -145.212)" fill="#ef4c23"/>
      <path id="Path_24" data-name="Path 24" d="M1820.868,129.96v4.777c-.249,0-.495.009-.743.018l-.241-4.584A5.034,5.034,0,0,1,1820.868,129.96Z" transform="translate(-1785.958 -129.959)" fill="#ef4c23"/>
      <path id="Path_25" data-name="Path 25" d="M1861.178,136.627l-.41,3.911q-.37-.033-.743-.058l.226-4.307C1860.563,136.31,1860.871,136.465,1861.178,136.627Z" transform="translate(-1822.657 -135.639)" fill="#ef4c23"/>
      <path id="Path_26" data-name="Path 26" d="M1842.348,130.162l-.241,4.584c-.248-.008-.495-.015-.743-.018V129.95A5.046,5.046,0,0,1,1842.348,130.162Z" transform="translate(-1805.596 -129.95)" fill="#ef4c23"/>
      <path id="Path_27" data-name="Path 27" d="M2082.71,241.647l-3.379,3.377q-.268-.261-.539-.512l3.056-3.395A4.674,4.674,0,0,1,2082.71,241.647Z" transform="translate(-2022.676 -231.589)" fill="#ef4c23"/>
      <path id="Path_28" data-name="Path 28" d="M2108.29,275.329l-2.98,2.414q-.238-.285-.484-.566l3.157-2.843C2108.094,274.658,2108.2,274.992,2108.29,275.329Z" transform="translate(-2046.477 -261.96)" fill="#ef4c23"/>
      <path id="Path_29" data-name="Path 29" d="M2096.062,255.263l-3.389,3.052q-.252-.273-.512-.54l3.375-3.375a4.745,4.745,0,0,1,.526.863Z" transform="translate(-2034.898 -243.734)" fill="#ef4c23"/>
      <path id="Path_30" data-name="Path 30" d="M2119.753,297.354l-2.531,1.839q-.223-.3-.455-.589l2.694-2.18C2119.55,296.739,2119.647,297.051,2119.753,297.354Z" transform="translate(-2057.396 -282.156)" fill="#ef4c23"/>
      <path id="Path_31" data-name="Path 31" d="M2151.821,348.183l-3.549,1.808c-.115-.219-.234-.438-.356-.654l3.095-1.787C2151.281,347.76,2151.554,347.969,2151.821,348.183Z" transform="translate(-2085.875 -328.901)" fill="#ef4c23"/>
      <path id="Path_32" data-name="Path 32" d="M2068.191,233.809l-2.851,3.165q-.279-.248-.564-.484l2.42-2.989C2067.536,233.6,2067.87,233.7,2068.191,233.809Z" transform="translate(-2009.862 -224.626)" fill="#ef4c23"/>
      <path id="Path_33" data-name="Path 33" d="M2052.922,227.441l-2.187,2.7c-.195-.155-.392-.306-.589-.455l1.844-2.538C2052.293,227.256,2052.607,227.35,2052.922,227.441Z" transform="translate(-1996.484 -218.819)" fill="#ef4c23"/>
      <path id="Path_34" data-name="Path 34" d="M1988.611,866.343a6.7,6.7,0,0,1-.748.7l-1.89-4.246q.337-.155.67-.321Z" transform="translate(-1937.812 -799.698)" fill="#ef4c23"/>
      <path id="Path_35" data-name="Path 35" d="M1741.087,888.346l-.6,2.836a8.041,8.041,0,0,0-.921-.014l.8-2.992Q1740.726,888.264,1741.087,888.346Z" transform="translate(-1712.52 -823.19)" fill="#ef4c23"/>
      <path id="Path_36" data-name="Path 36" d="M1916.906,891.164a7.841,7.841,0,0,0-.922.015l-.6-2.836c.242-.055.482-.111.722-.172Z" transform="translate(-1873.271 -823.187)" fill="#ef4c23"/>
      <path id="Path_37" data-name="Path 37" d="M1953.62,881.385a9.593,9.593,0,0,1-1.035-.02l-1.279-3.937q.353-.118.7-.248Z" transform="translate(-1906.115 -813.139)" fill="#ef4c23"/>
      <path id="Path_38" data-name="Path 38" d="M1800.4,140.488q-.373.024-.743.057l-.411-3.908c.306-.163.616-.318.927-.456Z" transform="translate(-1767.086 -135.646)" fill="#ef4c23"/>
      <path id="Path_39" data-name="Path 39" d="M1629.764,844.618l-1.616,2.8c-.2-.246-.414-.481-.633-.7l1.617-2.49C1629.342,844.362,1629.552,844.492,1629.764,844.618Z" transform="translate(-1610.075 -783.012)" fill="#ef4c23"/>
      <path id="Path_40" data-name="Path 40" d="M1696.73,877.427l-1.28,3.939a9.539,9.539,0,0,1-1.035.019l1.614-4.2C1696.261,877.265,1696.494,877.348,1696.73,877.427Z" transform="translate(-1671.242 -813.139)" fill="#ef4c23"/>
      <path id="Path_41" data-name="Path 41" d="M1658.621,862.79l-1.89,4.245a6.688,6.688,0,0,1-.748-.7l1.968-3.862Q1658.284,862.634,1658.621,862.79Z" transform="translate(-1636.104 -799.689)" fill="#ef4c23"/>
      <path id="Path_42" data-name="Path 42" d="M2130.582,742.456c-.025.035-.052.071-.077.107a5.144,5.144,0,0,0-.376.667l-2.364-1.718q.216-.3.423-.611Z" transform="translate(-2067.452 -688.539)" fill="#ef4c23"/>
      <path id="Path_43" data-name="Path 43" d="M2161.005,694.036a6.7,6.7,0,0,1-.707.746l-3.853-1.963c.11-.222.217-.445.321-.67Z" transform="translate(-2093.673 -643.966)" fill="#ef4c23"/>
      <path id="Path_44" data-name="Path 44" d="M2021.215,846.731c-.219.218-.43.453-.633.7l-1.618-2.8q.319-.19.633-.389Z" transform="translate(-1967.975 -783.021)" fill="#ef4c23"/>
      <path id="Path_45" data-name="Path 45" d="M2175.383,659.807l-4.212-1.617q.129-.348.248-.7l3.948,1.282A9.454,9.454,0,0,1,2175.383,659.807Z" transform="translate(-2107.138 -612.276)" fill="#ef4c23"/>
      <path id="Path_46" data-name="Path 46" d="M2168.962,676.693a3.886,3.886,0,0,1-.215.7c-.035.082-.073.162-.115.241l-4.367-1.944q.147-.342.286-.687Z" transform="translate(-2100.823 -628.286)" fill="#ef4c23"/>
      <path id="Path_47" data-name="Path 47" d="M2037.063,836.21a5.142,5.142,0,0,0-.642.363c-.044.03-.087.062-.13.093l-1.555-2.394q.306-.207.611-.422Z" transform="translate(-1982.395 -773.522)" fill="#ef4c23"/>
      <path id="Path_48" data-name="Path 48" d="M1740.979,164.148q-.363.082-.725.172l-.8-3a8.062,8.062,0,0,0,.924-.015Z" transform="translate(-1712.418 -158.622)" fill="#ef4c23"/>
      <path id="Path_49" data-name="Path 49" d="M2141.352,726.756c-.245.2-.48.416-.7.636l-2.486-1.615q.2-.314.391-.633Z" transform="translate(-2076.963 -674.132)" fill="#ef4c23"/>
      <path id="Path_50" data-name="Path 50" d="M1613.192,834.263l-1.555,2.394c-.042-.031-.085-.062-.129-.092a5.119,5.119,0,0,0-.643-.364l1.714-2.36Q1612.884,834.055,1613.192,834.263Z" transform="translate(-1594.853 -773.514)" fill="#ef4c23"/>
      <path id="Path_51" data-name="Path 51" d="M1612.963,220.406q-.309.207-.612.424l-1.717-2.363a5.14,5.14,0,0,0,.663-.374c.039-.026.075-.053.112-.08Z" transform="translate(-1594.641 -210.466)" fill="#ef4c23"/>
      <path id="Path_52" data-name="Path 52" d="M1514.728,318.542q-.216.3-.424.613l-2.394-1.555c.032-.044.065-.089.1-.134a5.13,5.13,0,0,0,.362-.638Z" transform="translate(-1504.379 -300.812)" fill="#ef4c23"/>
      <path id="Path_53" data-name="Path 53" d="M1500.331,335.1q-.2.315-.389.633l-2.8-1.618c.246-.2.483-.415.7-.633Z" transform="translate(-1490.872 -316.036)" fill="#ef4c23"/>
      <path id="Path_54" data-name="Path 54" d="M1696.578,162.218c-.236.08-.469.162-.7.249l-1.616-4.21a9.578,9.578,0,0,1,1.036.018Z" transform="translate(-1671.099 -155.825)" fill="#ef4c23"/>
      <path id="Path_55" data-name="Path 55" d="M1467.406,363.94c-.111.223-.217.448-.321.672l-4.248-1.892a6.712,6.712,0,0,1,.7-.75Z" transform="translate(-1459.51 -342.085)" fill="#ef4c23"/>
      <path id="Path_56" data-name="Path 56" d="M1514.942,741.5l-2.364,1.717a5.179,5.179,0,0,0-.375-.666c-.025-.036-.051-.072-.078-.109l2.393-1.555Q1514.726,741.195,1514.942,741.5Z" transform="translate(-1504.576 -688.525)" fill="#ef4c23"/>
      <path id="Path_57" data-name="Path 57" d="M1629.584,206.095c-.212.128-.424.257-.633.391L1627.335,204c.22-.218.43-.453.636-.7Z" transform="translate(-1609.911 -197.013)" fill="#ef4c23"/>
      <path id="Path_58" data-name="Path 58" d="M1658.487,173.184c-.225.1-.449.21-.671.321l-1.965-3.856a6.892,6.892,0,0,1,.748-.707Z" transform="translate(-1635.982 -165.6)" fill="#ef4c23"/>
      <path id="Path_59" data-name="Path 59" d="M1458.3,381.166q-.147.342-.285.689l-4.406-1.692a3.87,3.87,0,0,1,.223-.732q.047-.107.1-.211Z" transform="translate(-1451.075 -357.856)" fill="#ef4c23"/>
      <path id="Path_60" data-name="Path 60" d="M1500.632,725.77l-2.486,1.615c-.217-.219-.452-.43-.7-.636l2.793-1.612Q1500.432,725.456,1500.632,725.77Z" transform="translate(-1491.156 -674.126)" fill="#ef4c23"/>
      <path id="Path_61" data-name="Path 61" d="M1458.395,675.673l-4.367,1.945c-.04-.078-.079-.158-.114-.24a3.808,3.808,0,0,1-.215-.7l4.411-1.694C1458.2,675.217,1458.3,675.447,1458.395,675.673Z" transform="translate(-1451.156 -628.275)" fill="#ef4c23"/>
      <path id="Path_62" data-name="Path 62" d="M1467.662,692.811l-3.854,1.964a6.8,6.8,0,0,1-.707-.746l4.241-1.887C1467.443,692.367,1467.551,692.589,1467.662,692.811Z" transform="translate(-1459.751 -643.958)" fill="#ef4c23"/>
      <path id="Path_63" data-name="Path 63" d="M1456.556,402.084c-.086.233-.169.467-.247.7l-3.935-1.278a9.79,9.79,0,0,1-.021-1.037Z" transform="translate(-1449.921 -377.286)" fill="#ef4c23"/>
      <path id="Path_64" data-name="Path 64" d="M1456.573,658.172l-4.212,1.616a9.511,9.511,0,0,1,.016-1.035l3.947-1.283C1456.4,657.706,1456.485,657.939,1456.573,658.172Z" transform="translate(-1449.925 -612.259)" fill="#ef4c23"/>
      <path id="Path_65" data-name="Path 65" d="M1453.643,603.961l-2.8.594a6.316,6.316,0,0,0-.283-.859l2.945-.466Q1453.568,603.6,1453.643,603.961Z" transform="translate(-1448.289 -562.667)" fill="#ef4c23"/>
      <path id="Path_66" data-name="Path 66" d="M2005.139,856.886c-.209.271-.418.543-.631.809l-1.808-3.547q.33-.172.652-.355Z" transform="translate(-1953.104 -791.756)" fill="#ef4c23"/>
      <path id="Path_67" data-name="Path 67" d="M1935.351,886.74c-.334-.036-.669-.074-1-.105l-.878-3.275c.238-.067.477-.137.713-.21Z" transform="translate(-1889.81 -818.597)" fill="#ef4c23"/>
      <path id="Path_68" data-name="Path 68" d="M1879.841,898.519c-.29.146-.579.3-.868.461l-.374-3.557c.246-.028.492-.06.736-.1Z" transform="translate(-1839.639 -829.731)" fill="#ef4c23"/>
      <path id="Path_69" data-name="Path 69" d="M2095.856,787.784a4.649,4.649,0,0,1-.53.859l-3.377-3.377q.259-.268.512-.538Z" transform="translate(-2034.704 -728.611)" fill="#ef4c23"/>
      <path id="Path_70" data-name="Path 70" d="M2082.5,801.452a4.725,4.725,0,0,1-.862.525l-3.051-3.389q.272-.252.539-.511Z" transform="translate(-2022.491 -740.816)" fill="#ef4c23"/>
      <path id="Path_71" data-name="Path 71" d="M2067.987,813.885c-.323.112-.657.212-.992.306l-2.415-2.981q.284-.236.564-.483Z" transform="translate(-2009.681 -752.381)" fill="#ef4c23"/>
      <path id="Path_72" data-name="Path 72" d="M2052.713,825.361c-.316.091-.628.186-.931.291l-1.839-2.532c.2-.148.394-.3.589-.453Z" transform="translate(-1996.299 -763.298)" fill="#ef4c23"/>
      <path id="Path_73" data-name="Path 73" d="M1898.391,895.026a6.391,6.391,0,0,0-.858.288l-.467-2.95c.244-.042.488-.086.73-.135Z" transform="translate(-1856.524 -826.898)" fill="#ef4c23"/>
      <path id="Path_74" data-name="Path 74" d="M1861.163,901.382c-.307.162-.616.316-.926.454l-.226-4.308q.372-.023.74-.057Z" transform="translate(-1822.644 -831.69)" fill="#ef4c23"/>
      <path id="Path_75" data-name="Path 75" d="M1761.531,892.367l-.467,2.949a6.439,6.439,0,0,0-.858-.287l.594-2.8C1761.043,892.28,1761.286,892.325,1761.531,892.367Z" transform="translate(-1731.394 -826.901)" fill="#ef4c23"/>
      <path id="Path_76" data-name="Path 76" d="M1800.443,897.524l-.226,4.307c-.31-.138-.619-.292-.926-.455l.411-3.911Q1800.068,897.5,1800.443,897.524Z" transform="translate(-1767.128 -831.686)" fill="#ef4c23"/>
      <path id="Path_77" data-name="Path 77" d="M1780.891,895.425l-.374,3.555c-.29-.159-.578-.315-.868-.461l.506-3.19Q1780.52,895.382,1780.891,895.425Z" transform="translate(-1749.17 -829.732)" fill="#ef4c23"/>
      <path id="Path_78" data-name="Path 78" d="M1719.2,883.35l-.878,3.276c-.333.031-.668.07-1,.1l1.167-3.591C1718.729,883.214,1718.965,883.283,1719.2,883.35Z" transform="translate(-1692.186 -818.588)" fill="#ef4c23"/>
      <path id="Path_79" data-name="Path 79" d="M1820.883,898.678v4.777a5.088,5.088,0,0,1-.982-.211l.241-4.584C1820.391,898.669,1820.636,898.675,1820.883,898.678Z" transform="translate(-1785.973 -832.777)" fill="#ef4c23"/>
      <path id="Path_80" data-name="Path 80" d="M1842.353,903.245a5.01,5.01,0,0,1-.982.21v-4.777c.248,0,.495-.01.741-.018Z" transform="translate(-1805.602 -832.778)" fill="#ef4c23"/>
      <path id="Path_81" data-name="Path 81" d="M2108.088,773.14c-.1.337-.2.67-.309.992l-3.166-2.851c.165-.186.327-.375.484-.564Z" transform="translate(-2046.284 -715.801)" fill="#ef4c23"/>
      <path id="Path_82" data-name="Path 82" d="M2195.908,566.386c-.139.31-.294.619-.457.926l-3.9-.41c.022-.246.042-.495.058-.741Z" transform="translate(-2125.768 -528.774)" fill="#ef4c23"/>
      <path id="Path_83" data-name="Path 83" d="M2197.545,547.5a5.067,5.067,0,0,1-.215.983l-4.579-.24c.01-.248.015-.495.019-.743Z" transform="translate(-2126.867 -511.714)" fill="#ef4c23"/>
      <path id="Path_84" data-name="Path 84" d="M2197.559,527.008h-4.779c0-.249-.009-.495-.017-.743l4.589-.241A5,5,0,0,1,2197.559,527.008Z" transform="translate(-2126.879 -492.078)" fill="#ef4c23"/>
      <path id="Path_85" data-name="Path 85" d="M1971.453,874.662c-.071.036-.143.071-.218.1a3.912,3.912,0,0,1-.722.22l-1.692-4.408q.346-.138.687-.283Z" transform="translate(-1922.131 -806.842)" fill="#ef4c23"/>
      <path id="Path_86" data-name="Path 86" d="M1675.841,870.567l-1.692,4.408a3.858,3.858,0,0,1-.72-.22c-.074-.032-.148-.067-.22-.1l1.945-4.369Q1675.495,870.428,1675.841,870.567Z" transform="translate(-1651.852 -806.832)" fill="#ef4c23"/>
      <path id="Path_87" data-name="Path 87" d="M1675.691,163.981q-.346.137-.687.285l-1.945-4.367c.077-.039.153-.076.233-.11a3.868,3.868,0,0,1,.707-.218Z" transform="translate(-1651.715 -157.032)" fill="#ef4c23"/>
      <path id="Path_88" data-name="Path 88" d="M1971.6,159.9l-1.945,4.369q-.342-.147-.688-.285l1.693-4.41a3.9,3.9,0,0,1,.709.218C1971.445,159.821,1971.523,159.858,1971.6,159.9Z" transform="translate(-1922.261 -157.031)" fill="#ef4c23"/>
      <path id="Path_89" data-name="Path 89" d="M2193.037,585.123c-.158.29-.315.579-.461.868l-3.183-.5q.052-.367.1-.737Z" transform="translate(-2123.798 -545.771)" fill="#ef4c23"/>
      <path id="Path_90" data-name="Path 90" d="M2151.623,710.682c-.266.212-.539.422-.809.631l-3.083-1.78q.182-.324.356-.652Z" transform="translate(-2085.707 -659.263)" fill="#ef4c23"/>
      <path id="Path_91" data-name="Path 91" d="M2119.56,757.95c-.105.3-.2.616-.29.932l-2.7-2.188c.155-.195.306-.39.454-.589Z" transform="translate(-2057.213 -702.441)" fill="#ef4c23"/>
      <path id="Path_92" data-name="Path 92" d="M2180.758,641.533l-3.6-1.17q.111-.355.211-.713l3.284.88C2180.686,640.863,2180.723,641.2,2180.758,641.533Z" transform="translate(-2112.611 -595.966)" fill="#ef4c23"/>
      <path id="Path_93" data-name="Path 93" d="M2189.362,603.7a6.332,6.332,0,0,0-.282.86l-2.8-.594c.047-.243.093-.487.134-.732Z" transform="translate(-2120.954 -562.667)" fill="#ef4c23"/>
      <path id="Path_94" data-name="Path 94" d="M2185.2,623.077l-3-.8c.061-.24.118-.482.173-.723l2.84.6a8.043,8.043,0,0,0-.014.924Z" transform="translate(-2117.22 -579.417)" fill="#ef4c23"/>
      <path id="Path_95" data-name="Path 95" d="M1539.129,785.254l-3.377,3.377a4.711,4.711,0,0,1-.529-.86l3.394-3.055Q1538.869,784.988,1539.129,785.254Z" transform="translate(-1525.693 -728.6)" fill="#ef4c23"/>
      <path id="Path_96" data-name="Path 96" d="M1524.135,298.61c-.155.195-.307.392-.454.589l-2.531-1.838c.106-.3.2-.615.292-.932Z" transform="translate(-1512.826 -282.162)" fill="#ef4c23"/>
      <path id="Path_97" data-name="Path 97" d="M1530.973,277.2q-.247.28-.483.565l-2.98-2.414c.094-.337.2-.67.307-.993Z" transform="translate(-1518.641 -261.986)" fill="#ef4c23"/>
      <path id="Path_98" data-name="Path 98" d="M1483.181,349.347q-.183.324-.356.653l-3.549-1.808c.266-.213.539-.422.81-.633Z" transform="translate(-1474.541 -328.909)" fill="#ef4c23"/>
      <path id="Path_99" data-name="Path 99" d="M1538.975,257.8q-.259.267-.512.54l-3.389-3.051a4.767,4.767,0,0,1,.526-.863Z" transform="translate(-1525.558 -243.753)" fill="#ef4c23"/>
      <path id="Path_100" data-name="Path 100" d="M1453.474,466.883c-.047.242-.093.487-.134.73l-2.953-.468a6.512,6.512,0,0,0,.29-.858Z" transform="translate(-1448.128 -437.462)" fill="#ef4c23"/>
      <path id="Path_101" data-name="Path 101" d="M1458.388,446.451q-.09.36-.171.724l-2.834-.6a8.042,8.042,0,0,0,.017-.922Z" transform="translate(-1452.696 -418.594)" fill="#ef4c23"/>
      <path id="Path_102" data-name="Path 102" d="M1457.228,424.565c-.073.236-.143.475-.21.713l-3.271-.876c-.032-.333-.07-.668-.1-1Z" transform="translate(-1451.105 -398.25)" fill="#ef4c23"/>
      <path id="Path_103" data-name="Path 103" d="M1761.446,159.338q-.368.062-.733.134l-.594-2.8a6.363,6.363,0,0,0,.86-.287Z" transform="translate(-1731.313 -154.123)" fill="#ef4c23"/>
      <path id="Path_104" data-name="Path 104" d="M1552.175,244.524q-.272.252-.539.512l-3.377-3.377a4.691,4.691,0,0,1,.86-.531Z" transform="translate(-1537.611 -231.601)" fill="#ef4c23"/>
      <path id="Path_105" data-name="Path 105" d="M1444.285,486.246q-.053.367-.094.737l-3.563-.375c.159-.29.315-.579.462-.869Z" transform="translate(-1439.205 -455.246)" fill="#ef4c23"/>
      <path id="Path_106" data-name="Path 106" d="M1643.89,188.977q-.33.172-.653.356l-1.782-3.086c.209-.271.418-.544.632-.811Z" transform="translate(-1622.821 -180.681)" fill="#ef4c23"/>
      <path id="Path_107" data-name="Path 107" d="M1719.074,162.905q-.359.1-.714.21l-1.168-3.6c.334.035.669.073,1,.1Z" transform="translate(-1692.065 -156.986)" fill="#ef4c23"/>
      <path id="Path_108" data-name="Path 108" d="M1571.526,236.489c-.191.16-.377.321-.566.485l-2.851-3.165c.323-.113.657-.213.994-.309Z" transform="translate(-1555.762 -224.625)" fill="#ef4c23"/>
      <path id="Path_109" data-name="Path 109" d="M1592.975,229.7c-.2.148-.4.3-.589.455l-2.186-2.7c.316-.091.629-.185.932-.291Z" transform="translate(-1575.958 -218.831)" fill="#ef4c23"/>
      <path id="Path_110" data-name="Path 110" d="M1428.829,526.261c-.009.248-.015.495-.017.743h-4.779a5.054,5.054,0,0,1,.207-.984Z" transform="translate(-1424.033 -492.075)" fill="#ef4c23"/>
      <path id="Path_111" data-name="Path 111" d="M1531.083,771.284l-3.164,2.849c-.113-.322-.212-.656-.309-.993l2.989-2.42C1530.757,770.909,1530.917,771.1,1531.083,771.284Z" transform="translate(-1518.732 -715.803)" fill="#ef4c23"/>
      <path id="Path_112" data-name="Path 112" d="M1780.825,150.214c-.247.028-.495.061-.739.1l-.5-3.188c.29-.147.579-.3.87-.462Z" transform="translate(-1749.109 -145.228)" fill="#ef4c23"/>
      <path id="Path_113" data-name="Path 113" d="M1524.253,756.679l-2.7,2.187c-.091-.315-.185-.628-.291-.931l2.539-1.844Q1524.022,756.387,1524.253,756.679Z" transform="translate(-1512.928 -702.427)" fill="#ef4c23"/>
      <path id="Path_114" data-name="Path 114" d="M1483.5,709.514l-3.084,1.78c-.271-.209-.543-.418-.809-.631l3.536-1.8Q1483.316,709.19,1483.5,709.514Z" transform="translate(-1474.843 -659.245)" fill="#ef4c23"/>
      <path id="Path_115" data-name="Path 115" d="M1593.243,823.113l-1.84,2.533c-.3-.106-.614-.2-.93-.291l2.182-2.694C1592.85,822.816,1593.045,822.966,1593.243,823.113Z" transform="translate(-1576.208 -763.292)" fill="#ef4c23"/>
      <path id="Path_116" data-name="Path 116" d="M1552.413,798.581l-3.051,3.389a4.735,4.735,0,0,1-.862-.525l3.374-3.374Q1552.14,798.328,1552.413,798.581Z" transform="translate(-1537.831 -740.809)" fill="#ef4c23"/>
      <path id="Path_117" data-name="Path 117" d="M1571.827,811.2l-2.414,2.982c-.337-.1-.67-.2-.993-.308l2.843-3.157Q1571.54,810.968,1571.827,811.2Z" transform="translate(-1556.044 -752.376)" fill="#ef4c23"/>
      <path id="Path_118" data-name="Path 118" d="M1444.487,585.487l-3.184.5c-.146-.29-.3-.578-.46-.868l3.548-.373C1444.421,585,1444.452,585.243,1444.487,585.487Z" transform="translate(-1439.402 -545.772)" fill="#ef4c23"/>
      <path id="Path_119" data-name="Path 119" d="M1428.875,548.243l-4.58.24a5.116,5.116,0,0,1-.214-.983h4.776C1428.859,547.749,1428.866,547.995,1428.875,548.243Z" transform="translate(-1424.076 -511.714)" fill="#ef4c23"/>
      <path id="Path_120" data-name="Path 120" d="M1644.032,854.135l-1.807,3.546c-.212-.265-.422-.538-.631-.808l1.785-3.092Q1643.7,853.963,1644.032,854.135Z" transform="translate(-1622.948 -791.744)" fill="#ef4c23"/>
      <path id="Path_121" data-name="Path 121" d="M1457.192,640.354l-3.6,1.17c.035-.333.074-.668.105-1l3.283-.88Q1457.081,640,1457.192,640.354Z" transform="translate(-1451.059 -595.958)" fill="#ef4c23"/>
      <path id="Path_122" data-name="Path 122" d="M1434.718,566.9l-3.9.411c-.163-.306-.318-.615-.457-.926l4.3-.225Q1434.683,566.529,1434.718,566.9Z" transform="translate(-1429.816 -528.772)" fill="#ef4c23"/>
      <path id="Path_123" data-name="Path 123" d="M1434.536,505.8c-.022.246-.041.495-.056.741l-4.315-.226c.138-.311.292-.621.454-.927Z" transform="translate(-1429.638 -473.214)" fill="#ef4c23"/>
      <path id="Path_124" data-name="Path 124" d="M1455.428,623.067a8.07,8.07,0,0,0-.013-.924l2.839-.6c.054.242.112.483.172.723Z" transform="translate(-1452.725 -579.408)" fill="#ef4c23"/>
    </g>
    <g id="Group_7" data-name="Group 7" transform="translate(1440.41 146.323)">
      <g id="Group_5" data-name="Group 5" transform="translate(7.335 7.338)">
        <path id="Path_125" data-name="Path 125" d="M1712.322,406.6a11.629,11.629,0,1,0,11.629,11.629A11.628,11.628,0,0,0,1712.322,406.6Zm7.553,12.48v3.568a2.057,2.057,0,0,1-2.055,2.055h-1.486a2.057,2.057,0,0,1-2.055-2.055V419.08h-1.119v6.389a.325.325,0,0,0,.325.325h1.353v1.119h-1.119a1.129,1.129,0,0,0-2.238,0h-1.119v-1.119h1.353a.325.325,0,0,0,.325-.325V412.458l-1.211-1.211h-2.146v1.119h.33a1.908,1.908,0,0,1,1.908,1.908v5.277a1.908,1.908,0,0,1-1.908,1.908h-2.568v1.773a.325.325,0,0,0,.325.325h1.353v1.119h-1.259a.979.979,0,0,0-1.957,0h-1.259v-1.119H1705a.325.325,0,0,0,.325-.325v-9.424a.325.325,0,0,0-.325-.325h-1.074l-.28-1.119h3.642l-.285,1.119h-.515v6.854h2.568a.788.788,0,0,0,.788-.788v-5.277a.788.788,0,0,0-.788-.788h-.375V416h-1.119v-5.874h3.729l1.307,1.307,1.307-1.307h3.729v2.238h.183a2.057,2.057,0,0,1,2.055,2.054V416h-1.119v-1.582a.936.936,0,0,0-.936-.936h-1.486a.936.936,0,0,0-.935.936v3.54h1.119v1.119H1715.4v3.568a.936.936,0,0,0,.935.936h1.486a.937.937,0,0,0,.936-.936V419.08h-.7v-1.119h2.8l-.28,1.119Zm-2.238-5.035v1.966h-1.119v-2.251Z" transform="translate(-1700.693 -406.6)" fill="#ef4c23"/>
        <path id="Path_126" data-name="Path 126" d="M1849.517,461.942v-1.119h-2.146l-1.211,1.211v5.5h1.119V464a2.057,2.057,0,0,1,2.055-2.054Z" transform="translate(-1833.693 -456.176)" fill="#ef4c23"/>
      </g>
      <g id="Group_6" data-name="Group 6" transform="translate(0 0)">
        <path id="Path_127" data-name="Path 127" d="M1693.879,652.775l-.413.341.068.082a.411.411,0,0,0,.217.154.266.266,0,0,0,.306-.253.412.412,0,0,0-.11-.242Z" transform="translate(-1686.75 -624.339)" fill="#ef4c23"/>
        <path id="Path_128" data-name="Path 128" d="M1915.071,375.851a.64.64,0,0,0,.414.222.617.617,0,0,0,.232-.018.6.6,0,0,0,.208-.1.611.611,0,0,0,.226-.422.6.6,0,0,0-.029-.231.616.616,0,0,0-.114-.2.638.638,0,0,0-.414-.222.6.6,0,0,0-.437.124.608.608,0,0,0-.226.422.6.6,0,0,0,.14.432Z" transform="translate(-1889.233 -370.251)" fill="#ef4c23"/>
        <path id="Path_129" data-name="Path 129" d="M1753.026,704.728l.085-.762-.542.542Z" transform="translate(-1740.787 -671.142)" fill="#ef4c23"/>
        <path id="Path_130" data-name="Path 130" d="M1659.94,470.574q-.252-.1-.366.191l-.069.174.5.2.068-.174Q1660.193,470.673,1659.94,470.574Z" transform="translate(-1655.7 -457.73)" fill="#ef4c23"/>
        <path id="Path_131" data-name="Path 131" d="M1678.287,435.528a.235.235,0,0,0-.215-.037.414.414,0,0,0-.2.174l-.06.088.444.3.06-.088a.413.413,0,0,0,.086-.251A.236.236,0,0,0,1678.287,435.528Z" transform="translate(-1672.438 -425.666)" fill="#ef4c23"/>
        <path id="Path_132" data-name="Path 132" d="M1706.852,401.989a.574.574,0,0,0,.2.144.6.6,0,0,0,.454.012.629.629,0,0,0,.407-.542.6.6,0,0,0-.029-.231.608.608,0,0,0-.323-.353.6.6,0,0,0-.227-.05.619.619,0,0,0-.229.04.641.641,0,0,0-.347.317.6.6,0,0,0-.028.453A.58.58,0,0,0,1706.852,401.989Z" transform="translate(-1698.846 -394.114)" fill="#ef4c23"/>
        <path id="Path_133" data-name="Path 133" d="M1665.837,618.7a.621.621,0,0,0-.146-.188.6.6,0,0,0-.429-.149.609.609,0,0,0-.427.216.6.6,0,0,0-.134.435.64.64,0,0,0,.212.419.613.613,0,0,0,.2.118.593.593,0,0,0,.23.034.609.609,0,0,0,.427-.216.594.594,0,0,0,.109-.205.627.627,0,0,0-.043-.462Z" transform="translate(-1660.449 -592.876)" fill="#ef4c23"/>
        <path id="Path_134" data-name="Path 134" d="M1897.05,711.774l.477-.172-.484-.595Z" transform="translate(-1872.881 -677.58)" fill="#ef4c23"/>
        <path id="Path_135" data-name="Path 135" d="M1970.539,655.479a.607.607,0,0,0-.363-.311.6.6,0,0,0-.232-.022.616.616,0,0,0-.223.067.639.639,0,0,0-.306.357.6.6,0,0,0,.843.722.628.628,0,0,0,.338-.587A.6.6,0,0,0,1970.539,655.479Z" transform="translate(-1939.019 -626.504)" fill="#ef4c23"/>
        <path id="Path_136" data-name="Path 136" d="M1985.532,440.893l-.745.18.275.426Z" transform="translate(-1953.104 -430.616)" fill="#ef4c23"/>
        <path id="Path_137" data-name="Path 137" d="M1647.452,326.523a18.966,18.966,0,1,0,5.556,13.413,18.966,18.966,0,0,0-5.556-13.413Zm2.2,7.581-1.586.6.238.634-.448.168-.437-1.163,2.035-.764Zm-1.78-3.466.335.518-1.376,1.875-.327-.506.246-.314-.438-.678-.388.1-.327-.506ZM1644.6,327l.413.385-.141,1.683.906-.972.411.383-1.481,1.59-.411-.383.141-1.683-.906.972-.413-.385Zm-4.417-.937a1.133,1.133,0,0,1,1.266-1.037,1.382,1.382,0,0,1,.855.458,1.149,1.149,0,0,1,.222.395,1.115,1.115,0,0,1,.047.439,1.184,1.184,0,0,1-.426.8,1.115,1.115,0,0,1-.392.2,1.146,1.146,0,0,1-.452.034,1.382,1.382,0,0,1-.855-.458,1.114,1.114,0,0,1-.266-.832Zm-1.8-2.224.542.156-.6,2.088-.542-.156Zm-2.708.979a.186.186,0,0,0-.051-.071.46.46,0,0,0-.1-.066q-.062-.032-.151-.072-.106-.045-.207-.1a.677.677,0,0,1-.176-.128.52.52,0,0,1-.116-.186.622.622,0,0,1-.025-.27.767.767,0,0,1,.081-.286.648.648,0,0,1,.17-.21.666.666,0,0,1,.249-.123.9.9,0,0,1,.316-.022,1.372,1.372,0,0,1,.331.076,1.49,1.49,0,0,1,.323.162l-.265.418a.694.694,0,0,0-.173-.128.493.493,0,0,0-.175-.053.29.29,0,0,0-.183.035.162.162,0,0,0-.081.128.135.135,0,0,0,.025.1.3.3,0,0,0,.084.073.758.758,0,0,0,.122.059l.135.056a.872.872,0,0,1,.38.283.608.608,0,0,1,.09.412.785.785,0,0,1-.084.3.629.629,0,0,1-.185.216.759.759,0,0,1-.278.124,1.106,1.106,0,0,1-.359.02,1.31,1.31,0,0,1-.737-.315l.283-.431a.979.979,0,0,0,.234.19.6.6,0,0,0,.239.077.292.292,0,0,0,.212-.044.2.2,0,0,0,.071-.223Zm-4.131-1.01a.647.647,0,0,1,.124-.24.666.666,0,0,1,.219-.171.891.891,0,0,1,.3-.086,1.368,1.368,0,0,1,.34.007,1.483,1.483,0,0,1,.35.093l-.174.463a.7.7,0,0,0-.2-.09.492.492,0,0,0-.182-.016.289.289,0,0,0-.172.071.162.162,0,0,0-.054.141.135.135,0,0,0,.045.091.3.3,0,0,0,.1.054.766.766,0,0,0,.131.033l.144.027a.872.872,0,0,1,.43.2.608.608,0,0,1,.172.385.783.783,0,0,1-.022.306.633.633,0,0,1-.137.249.757.757,0,0,1-.247.179,1.106,1.106,0,0,1-.348.093,1.31,1.31,0,0,1-.786-.158l.19-.479a.983.983,0,0,0,.268.138.6.6,0,0,0,.25.027.293.293,0,0,0,.2-.086.192.192,0,0,0,.051-.151.2.2,0,0,0-.027-.083.183.183,0,0,0-.065-.059.46.46,0,0,0-.111-.044q-.067-.019-.162-.04-.113-.022-.222-.052a.673.673,0,0,1-.2-.089.513.513,0,0,1-.151-.159.617.617,0,0,1-.08-.259.773.773,0,0,1,.019-.294Zm-2.092.088.149.454-.638.209.113.345.6-.2.149.455-.6.2.118.356.638-.209.149.455-1.175.385-.677-2.065Zm-3,1.181.236.417-.592.334.178.316.54-.3.236.417-.539.3.419.743-.492.278-1.07-1.892Zm-4.11,3.337a1.139,1.139,0,0,1,.116-.435,1.382,1.382,0,0,1,.716-.654,1.145,1.145,0,0,1,.446-.078,1.116,1.116,0,0,1,.43.1,1.184,1.184,0,0,1,.609.666,1.112,1.112,0,0,1,.062.437,1.146,1.146,0,0,1-.118.438,1.382,1.382,0,0,1-.716.654,1.144,1.144,0,0,1-1.544-1.128Zm-2.08,2.139a.869.869,0,0,1,.222-.233.6.6,0,0,1,.5-.094.746.746,0,0,1,.24.108.64.64,0,0,1,.266.324.6.6,0,0,1-.024.409l1.12-.068-.394.583-.994-.021.693.468-.316.468-1.8-1.216Zm-1.685,3.147a.768.768,0,0,1,.382-.452.836.836,0,0,1,1,.392.77.77,0,0,1-.028.591l-.122.311.671.264-.207.526-2.022-.8Zm-.131,6.791a.452.452,0,0,1-.178-.032.461.461,0,0,1-.146-.093.45.45,0,0,1-.139-.321.4.4,0,0,1,.035-.173.467.467,0,0,1,.1-.143.483.483,0,0,1,.141-.1.426.426,0,0,1,.169-.037.453.453,0,0,1,.178.032.461.461,0,0,1,.146.093.449.449,0,0,1,.1.141.439.439,0,0,1,.039.177.418.418,0,0,1-.033.173.46.46,0,0,1-.236.242.434.434,0,0,1-.175.04Zm1.583,7.775a1.115,1.115,0,0,1-.438-.058,1.149,1.149,0,0,1-.39-.231,1.382,1.382,0,0,1-.438-.865,1.137,1.137,0,0,1,1.89-.957,1.382,1.382,0,0,1,.438.865,1.144,1.144,0,0,1-.045.451,1.112,1.112,0,0,1-.212.387,1.184,1.184,0,0,1-.8.408Zm2.9,1.649a.613.613,0,0,1-.08.238.741.741,0,0,1-.172.2.639.639,0,0,1-.386.165.6.6,0,0,1-.386-.139l-.251,1.094-.448-.542.3-.948-.644.532-.36-.435,1.675-1.384.56.678a.863.863,0,0,1,.161.278.616.616,0,0,1,.03.264Zm2.466,2.644-.558-.158a.546.546,0,0,0,.006-.322.488.488,0,0,0-.165-.23.544.544,0,0,0-.21-.105.5.5,0,0,0-.223,0,.653.653,0,0,0-.222.094.86.86,0,0,0-.2.192.869.869,0,0,0-.131.224.579.579,0,0,0-.042.228.489.489,0,0,0,.057.216.6.6,0,0,0,.165.191.685.685,0,0,0,.138.085.428.428,0,0,0,.147.039.342.342,0,0,0,.147-.021.433.433,0,0,0,.143-.093l-.364-.287.271-.344.88.694a3.1,3.1,0,0,1-.206.238,1.117,1.117,0,0,1-.208.17,1.049,1.049,0,0,1-.315.135.962.962,0,0,1-.327.021,1.142,1.142,0,0,1-.324-.085,1.323,1.323,0,0,1-.3-.181,1.235,1.235,0,0,1-.312-.352,1.039,1.039,0,0,1-.136-.407,1.064,1.064,0,0,1,.041-.43,1.358,1.358,0,0,1,.577-.734,1.025,1.025,0,0,1,.407-.139,1.064,1.064,0,0,1,.431.042,1.293,1.293,0,0,1,.424.229,1.176,1.176,0,0,1,.377.485,1.015,1.015,0,0,1,.038.61Zm2.362,3.106-.542-.261.047-.4-.727-.349-.28.284-.542-.261,1.686-1.6.556.267Zm3.689,1-.549-.121-.733-1.522-.286,1.3-.552-.122.468-2.122.552.122.733,1.522.286-1.3.549.121Zm2.337.163-.565-.018.068-2.172.565.018Zm1.514-.018.8-1.814-.848.112-.063-.474,1.783-.236-.792,1.814.9-.119.063.474Zm4.96-1.154-.25-.311-.76.273.006.4-.567.2.043-2.325.58-.209,1.514,1.765Zm2.05-.983-.855-1.463-.4.234-.241-.413,1.289-.754.241.413-.4.234.855,1.463Zm-8.268-2.252a12.485,12.485,0,1,1,12.485-12.485,12.485,12.485,0,0,1-12.485,12.485Zm10.344.875-1.36-1.695.441-.353,1.36,1.695Zm2.78-2.757a1.381,1.381,0,0,1-.631.737,1.137,1.137,0,0,1-1.608-1.379,1.381,1.381,0,0,1,.631-.736,1.144,1.144,0,0,1,.433-.131,1.114,1.114,0,0,1,.439.047,1.184,1.184,0,0,1,.685.587,1.119,1.119,0,0,1,.115.426,1.149,1.149,0,0,1-.064.45Zm2.2-3.474-1.656.333,1.186.6-.254.5-1.94-.978.254-.5,1.656-.333-1.186-.6.253-.5,1.94.978Zm.583-6.659a.481.481,0,0,1-.146.093.424.424,0,0,1-.171.032.451.451,0,0,1-.177-.037.463.463,0,0,1-.141-.1.449.449,0,0,1-.1-.144.437.437,0,0,1-.033-.178.419.419,0,0,1,.039-.172.46.46,0,0,1,.243-.234.436.436,0,0,1,.178-.033.451.451,0,0,1,.447.46.407.407,0,0,1-.04.172.463.463,0,0,1-.1.14Z" transform="translate(-1615.075 -320.969)" fill="#ef4c23"/>
      </g>
    </g>
    <g id="Group_11" data-name="Group 11" transform="translate(1429.666 135.591)">
      <g id="Group_8" data-name="Group 8" transform="translate(1.336 35.745)">
        <path id="Path_138" data-name="Path 138" d="M1688.5,783.435a1.343,1.343,0,0,0-.872-.462,1.256,1.256,0,0,0-.917.264,1.25,1.25,0,0,0-.412,1.371,1.257,1.257,0,0,0,.237.424,1.343,1.343,0,0,0,.872.462,1.3,1.3,0,0,0,.487-.04,1.249,1.249,0,0,0,.436-.221,1.279,1.279,0,0,0,.471-.887,1.249,1.249,0,0,0-.062-.485A1.293,1.293,0,0,0,1688.5,783.435Z" transform="translate(-1670.73 -768.385)" fill="#ef4c23"/>
        <path id="Path_139" data-name="Path 139" d="M1885.212,810.392a.867.867,0,0,0-.557-.037l-.22.044.22,1.1.22-.044a.866.866,0,0,0,.5-.247.558.558,0,0,0-.163-.819Z" transform="translate(-1851.945 -793.402)" fill="#ef4c23"/>
        <path id="Path_140" data-name="Path 140" d="M1950.655,787.407a1.248,1.248,0,0,0-.428-.236,1.331,1.331,0,0,0-1.371.379,1.256,1.256,0,0,0-.325.9,1.278,1.278,0,0,0,.443.9,1.257,1.257,0,0,0,.909.292,1.319,1.319,0,0,0,1.139-.852,1.25,1.25,0,0,0,.077-.483,1.279,1.279,0,0,0-.443-.9Z" transform="translate(-1910.546 -772.177)" fill="#ef4c23"/>
        <path id="Path_141" data-name="Path 141" d="M1597.792,692.64l-.939.642.222.325q.369.54.838.219t.1-.86Z" transform="translate(-1589.009 -685.8)" fill="#ef4c23"/>
        <path id="Path_142" data-name="Path 142" d="M1639.29,739.438l-.165-.152-.763.828.165.152a.865.865,0,0,0,.495.259.558.558,0,0,0,.565-.614A.865.865,0,0,0,1639.29,739.438Z" transform="translate(-1626.962 -728.449)" fill="#ef4c23"/>
        <path id="Path_143" data-name="Path 143" d="M2061.416,691.741q-.471-.319-.837.221l-.221.326.943.639.221-.325Q2061.887,692.06,2061.416,691.741Z" transform="translate(-2012.79 -684.87)" fill="#ef4c23"/>
        <path id="Path_144" data-name="Path 144" d="M1552.6,612.833a19.84,19.84,0,0,1-37.78,0l-9.482,2.8a29.73,29.73,0,0,0,56.745,0Zm-38.82,9.346a1.616,1.616,0,0,1-.994-.747l-.4-.58-1.249.853-.669-.979,3.767-2.573,1.065,1.559a1.615,1.615,0,0,1,.334,1.2,1.755,1.755,0,0,1-1.859,1.27Zm5.278,2.86a1.566,1.566,0,0,1-.3.464,1.339,1.339,0,0,1-.757.45,1.264,1.264,0,0,1-.842-.18l-.212,2.347-1.086-1,.357-2.057-1.189,1.29-.871-.8,3.092-3.355,1.357,1.251a1.808,1.808,0,0,1,.413.533,1.253,1.253,0,0,1,.039,1.06Zm5.577,3.9a2.483,2.483,0,0,1-.887,1.673,2.341,2.341,0,0,1-.821.431,2.4,2.4,0,0,1-.948.076,2.9,2.9,0,0,1-1.8-.954,2.387,2.387,0,0,1,2.083-3.929,2.9,2.9,0,0,1,1.8.954,2.407,2.407,0,0,1,.469.827,2.338,2.338,0,0,1,.1.923Zm9.964,3.093a2.349,2.349,0,0,1-.153.542,2.193,2.193,0,0,1-.381.613,2.015,2.015,0,0,1-.537.43,2.4,2.4,0,0,1-.66.244,2.761,2.761,0,0,1-.742.054,2.593,2.593,0,0,1-.959-.231,2.192,2.192,0,0,1-.724-.536,2.232,2.232,0,0,1-.446-.789,2.85,2.85,0,0,1,.109-1.958,2.146,2.146,0,0,1,.533-.73,2.227,2.227,0,0,1,.792-.445,2.713,2.713,0,0,1,1.007-.118,2.474,2.474,0,0,1,1.233.38,2.136,2.136,0,0,1,.8,1l-1.15.4a1.147,1.147,0,0,0-.377-.561,1.026,1.026,0,0,0-.561-.2,1.147,1.147,0,0,0-.489.072,1.048,1.048,0,0,0-.388.263,1.361,1.361,0,0,0-.267.43,1.964,1.964,0,0,0-.076,1.117,1.214,1.214,0,0,0,.2.442,1.024,1.024,0,0,0,.358.3,1.267,1.267,0,0,0,.514.129,1.432,1.432,0,0,0,.341-.02.9.9,0,0,0,.3-.11.724.724,0,0,0,.227-.214.911.911,0,0,0,.134-.332l-.973-.056.053-.919,2.35.135a6.479,6.479,0,0,1-.068.659Zm5.052,1.154-1.452-1.5.342,1.721-1.163.231-.89-4.475,1.81-.36a1.811,1.811,0,0,1,.675-.02,1.253,1.253,0,0,1,.88.593,1.56,1.56,0,0,1,.2.516,1.338,1.338,0,0,1-.082.877,1.265,1.265,0,0,1-.642.575l1.771,1.555Zm7.34-3.416a2.407,2.407,0,0,1-.495.812,2.9,2.9,0,0,1-1.828.9,2.387,2.387,0,0,1-1.959-3.993,2.9,2.9,0,0,1,1.828-.9,2.406,2.406,0,0,1,.945.106,2.34,2.34,0,0,1,.807.457,2.484,2.484,0,0,1,.834,1.7,2.343,2.343,0,0,1-.131.918Zm5.657-4.125a2.537,2.537,0,0,1-2.231,2,2.128,2.128,0,0,1-1.4-.83l-1.767-1.968.883-.792,1.657,1.846q.133.149.284.294a1.113,1.113,0,0,0,.32.221.629.629,0,0,0,.362.045.84.84,0,0,0,.413-.228.826.826,0,0,0,.269-.384.656.656,0,0,0-.006-.365,1.082,1.082,0,0,0-.183-.344q-.128-.165-.262-.314l-1.657-1.846.878-.788,1.767,1.968a2.136,2.136,0,0,1,.677,1.483Zm-1.2-4.952,1.06-1.562a1.614,1.614,0,0,1,.991-.75,1.755,1.755,0,0,1,1.863,1.264,1.615,1.615,0,0,1-.33,1.2l-.394.581,1.252.848-.666.982Z" transform="translate(-1505.335 -612.833)" fill="#ef4c23"/>
      </g>
      <g id="Group_9" data-name="Group 9" transform="translate(1.324 0)">
        <path id="Path_145" data-name="Path 145" d="M2082.577,376.648l-.984.61.121.2a.889.889,0,0,0,.419.392.575.575,0,0,0,.73-.453.889.889,0,0,0-.165-.55Z" transform="translate(-2032.194 -361.146)" fill="#ef4c23"/>
        <path id="Path_146" data-name="Path 146" d="M1554.6,204.392a29.73,29.73,0,0,0-49.389,12.192l9.482,2.8a19.84,19.84,0,0,1,37.8,0l9.483-2.8a29.563,29.563,0,0,0-7.377-12.192Zm-40.59,10.064-3.144-1.875-.514.861-.888-.529,1.652-2.77.888.529-.513.861,3.144,1.875Zm4.654-5.807-1.344-1.394-1.268,1.223,1.344,1.394-.878.848-3.259-3.379.878-.848,1.258,1.3,1.268-1.223-1.258-1.3.878-.848,3.259,3.379Zm3.156-2.377-2.233-4.13,2.35-1.27.492.909-1.276.69.373.69,1.2-.651.492.909-1.2.651.385.712,1.276-.69.491.909Zm10.148-6.118,1.336-.085.066,1.031-1.336.085.118,1.839-1.218.077-.3-4.685,2.684-.171.066,1.031-1.466.094Zm8.513,1.747a2.2,2.2,0,0,1-.81,1.469,2.611,2.611,0,0,1-3.024-.613,2.184,2.184,0,0,1-.176-1.669l.542-2.667,1.2.243-.508,2.5q-.041.2-.068.415a1.147,1.147,0,0,0,.014.4.644.644,0,0,0,.185.327.868.868,0,0,0,.442.2.851.851,0,0,0,.483-.013.675.675,0,0,0,.3-.229,1.108,1.108,0,0,0,.172-.362q.058-.208.1-.409l.508-2.5,1.19.242Zm6.272.917-.9-.451-1.647,3.27-1.09-.549,1.647-3.27-.9-.451.465-.923,2.88,1.451Zm3.2,6.629a2.612,2.612,0,0,1-2.3-2.059,2.19,2.19,0,0,1,.692-1.528l1.816-2.026.909.814-1.7,1.9q-.137.153-.269.323a1.144,1.144,0,0,0-.19.353.643.643,0,0,0-.006.375.869.869,0,0,0,.28.4.851.851,0,0,0,.423.233.675.675,0,0,0,.373-.047,1.111,1.111,0,0,0,.331-.225q.155-.15.292-.3l1.7-1.9.9.81-1.816,2.026a2.2,2.2,0,0,1-1.442.856Zm6.813,3.543a1.6,1.6,0,0,1-.425.377,1.378,1.378,0,0,1-.874.238,1.3,1.3,0,0,1-.786-.41l-.857,2.268-.8-1.291.921-1.941-1.534.952-.643-1.037,3.99-2.474,1,1.614a1.868,1.868,0,0,1,.263.643,1.29,1.29,0,0,1-.254,1.062Z" transform="translate(-1505.209 -195.7)" fill="#ef4c23"/>
      </g>
      <path id="Path_147" data-name="Path 147" d="M1499.638,457.027a19.937,19.937,0,0,1,.683-5.191l-9.483-2.8a30.052,30.052,0,0,0,.01,16.018l9.483-2.8A19.919,19.919,0,0,1,1499.638,457.027Zm-4.7-1.522a.248.248,0,0,0-.077-.089.625.625,0,0,0-.141-.075q-.087-.035-.212-.077-.147-.047-.288-.1a.906.906,0,0,1-.252-.149.692.692,0,0,1-.178-.234.823.823,0,0,1-.068-.358,1.031,1.031,0,0,1,.071-.393.872.872,0,0,1,.2-.3.9.9,0,0,1,.317-.2,1.2,1.2,0,0,1,.42-.071,1.836,1.836,0,0,1,.453.06,2,2,0,0,1,.453.176l-.3.592a.94.94,0,0,0-.247-.149.659.659,0,0,0-.24-.048.389.389,0,0,0-.24.071.216.216,0,0,0-.093.182.18.18,0,0,0,.047.128.4.4,0,0,0,.122.087,1.035,1.035,0,0,0,.17.064q.094.027.188.058a1.171,1.171,0,0,1,.544.33.816.816,0,0,1,.172.54,1.049,1.049,0,0,1-.075.406.846.846,0,0,1-.22.311,1.019,1.019,0,0,1-.356.2,1.485,1.485,0,0,1-.478.071,1.757,1.757,0,0,1-1.025-.33l.325-.611a1.315,1.315,0,0,0,.337.224.809.809,0,0,0,.33.074.393.393,0,0,0,.277-.085.26.26,0,0,0,.091-.193.263.263,0,0,0-.023-.111Zm.814,4.894-.251-1.679-.689,1.679h-.3l-.654-1.679-.252,1.679h-.754l.495-2.917h.751l.584,1.555.58-1.555h.751l.495,2.917Z" transform="translate(-1489.755 -427.329)" fill="#ef4c23"/>
      <g id="Group_10" data-name="Group 10" transform="translate(48.84 21.706)">
        <path id="Path_148" data-name="Path 148" d="M2069.112,449.028l-9.483,2.8a20.043,20.043,0,0,1-.009,10.415l9.483,2.8a30.053,30.053,0,0,0,.01-16.019Zm-4.877,5.341a1.541,1.541,0,0,1,1.41-.915,1.594,1.594,0,0,1,.342.037,2.08,2.08,0,0,1,.354.114v.906a.81.81,0,0,0-.65-.321.8.8,0,0,0-.315.062.754.754,0,0,0-.414.422.831.831,0,0,0-.06.317.845.845,0,0,0,.06.321.774.774,0,0,0,.726.487.877.877,0,0,0,.653-.31v.9l-.077.027a2.26,2.26,0,0,1-.325.091,1.579,1.579,0,0,1-.3.029,1.522,1.522,0,0,1-1.066-.435,1.593,1.593,0,0,1-.339-.492,1.576,1.576,0,0,1,0-1.238Zm1.706,6.023-.174-.507h-1.084l-.175.507h-.808l1.11-2.917h.828l1.11,2.917Z" transform="translate(-2059.62 -449.028)" fill="#ef4c23"/>
        <path id="Path_149" data-name="Path 149" d="M2121.07,558.628h.681l-.341-.971Z" transform="translate(-2115.803 -548.347)" fill="#ef4c23"/>
      </g>
    </g>
  </g>
</svg>
